# xmcd
#
# Track frame offsets: 
#        150
#        18562
#        47075
#        71383
#        89222
#        117669
#        146147
#        165656
#        195783
#        215167
#        256973
#        275610
#        293073
#
# Disc length: 4280 seconds
#
# Revision: 0
# Processed by: cddbd v1.5.2PL0 Copyright (c) Steve Scherf et al.
# Submitted via: ExactAudioCopyFreeDBPlugin 1.0
#
DISCID=cd10b60d
DTITLE=Vance Kelly - Live At Kingston Mines
DYEAR=2015
DGENRE=Blues
TTITLE0=How Many More Years
TTITLE1=Ain't Going To Worry About Tomorrow
TTITLE2=Mustang Sally
TTITLE3=Members Only
TTITLE4=The Blues Is Alright - Going Fishing
TTITLE5=You Don't Have To Go - Baby What You Want Me To Do
TTITLE6=Let The Good Time Roll
TTITLE7=I Want To Ta-Ta You Baby
TTITLE8=Clean-Up Woman
TTITLE9=Nobody's Sleeping In My Bed
TTITLE10=Strokin'
TTITLE11=I'll Play The Blues For You
TTITLE12=Turning Point
EXTD=
EXTT0=
EXTT1=
EXTT2=
EXTT3=
EXTT4=
EXTT5=
EXTT6=
EXTT7=
EXTT8=
EXTT9=
EXTT10=
EXTT11=
EXTT12=
PLAYORDER=
